# AST/ASF file generated using VICON BodyLanguage
# -----------------------------------------------
:version 1.10
:name VICON
:units
  mass 1.0
  length 0.45
  angle deg
:documentation
   .ast/.asf automatically generated from VICON data using
   VICON BodyBuilder and BodyLanguage model FoxedUp or BRILLIANT.MOD
:root
   order TX TY TZ RX RY RZ
   axis XYZ
   position 0 0 0  
   orientation 0 0 0 
:bonedata
  begin
     id 1 
     name lhipjoint
     direction 0.653368 -0.678499 0.335782 
     length 2.51848 
     axis 0 0 0  XYZ
  end
  begin
     id 2 
     name lfemur
     direction 0.34202 -0.939693 0  
     length 6.57749  
     axis 0 0 20  XYZ
    dof rx ry rz
    limits (-160.0 20.0)
           (-70.0 70.0)
           (-60.0 70.0)
  end
  begin
     id 3 
     name ltibia
     direction 0.34202 -0.939693 0   
     length 7.94618   
     axis 0 0 20   XYZ
    dof rx
    limits (-10.0 170.0)
  end
  begin
     id 4 
     name lfoot
     direction 0.0811271 -0.222895 0.971461   
     length 2.31339   
     axis -90 7.62852e-016 20   XYZ
    dof rx rz
    limits (-45.0 90.0)
           (-70.0 20.0)
  end
  begin
     id 5 
     name ltoes
     direction 1.53568e-011 -4.21885e-011 1   
     length 1.15935   
     axis -90 7.62852e-016 20   XYZ
    dof rx
    limits (-90.0 20.0)
  end
  begin
     id 6 
     name rhipjoint
     direction -0.640058 -0.688614 0.340788   
     length 2.48149  
     axis 0 0 0  XYZ 
  end
  begin
     id 7 
     name rfemur
     direction -0.34202 -0.939693 0   
     length 6.57875   
     axis 0 0 -20   XYZ
    dof rx ry rz
    limits (-160.0 20.0)
           (-70.0 70.0)
           (-70.0 60.0)
  end
  begin
     id 8 
     name rtibia
     direction -0.34202 -0.939693 0   
     length 7.977   
     axis 0 0 -20   XYZ
    dof rx
    limits (-10.0 170.0)
 end
 begin
     id 9 
     name rfoot
     direction -0.0979793 -0.269196 0.958089   
     length 2.19857  
     axis -90 -7.62852e-016 -20   XYZ
    dof rx rz
    limits (-45.0 90.0)
           (-20.0 70.0)
  end
  begin
     id 10 
     name rtoes
     direction -1.53556e-011 -4.21868e-011 1   
     length 1.09838   
     axis -90 -7.62852e-016 -20   XYZ
    dof rx
    limits (-90.0 20.0)
  end
  begin
     id 11 
     name lowerback
     direction 0.0149039 0.998517 -0.0523597   
     length 2.10809   
     axis 0 0 0   XYZ
    dof rx ry rz
    limits (-20.0 45.0)
           (-30.0 30.0)
           (-30.0 30.0)
  end
  begin
     id 12 
     name upperback
     direction -0.00882659 0.999418 -0.0329624   
     length 2.1102   
     axis 0 0 0   XYZ
    dof rx ry rz
    limits (-20.0 45.0)
           (-30.0 30.0)
           (-30.0 30.0)
  end
  begin
     id 13 
     name thorax
     direction -0.0165585 0.999826 -0.0085833   
     length 2.11039   
     axis 0 0 0   XYZ
    dof rx ry rz
    limits (-20.0 45.0)
           (-30.0 30.0)
           (-30.0 30.0)
  end
  begin
     id 14 
     name lowerneck
     direction -0.0130877 0.999911 0.00260353   
     length 1.73253   
     axis 0 0 0   XYZ
    dof rx ry rz
    limits (-20.0 45.0)
           (-30.0 30.0)
           (-30.0 30.0)
  end
  begin
     id 15 
     name upperneck
     direction -0.0348454 0.928205 -0.370435   
     length 1.66692   
     axis 0 0 0   XYZ
    dof rx ry rz
    limits (-20.0 45.0)
           (-30.0 30.0)
           (-30.0 30.0)
  end
  begin
     id 16
     name head
     direction -0.00807754 0.992494 -0.122026  
     length 1.72765  
     axis 0 0 0   XYZ
    dof rx ry rz
    limits (-20.0 45.0)
           (-30.0 30.0)
           (-30.0 30.0)
  end
  begin
     id 17 
     name lclavicle
     direction 0.987582 0.144023 0.0627671  
     length 3.49235  
     axis 0 0 0   XYZ
    dof ry rz
    limits (-20.0 10.0)
           (0.0 20.0)
  end
  begin
     id 18 
     name lhumerus
     direction 1 -4.48958e-011 -1.45183e-018   
     length 5.41917   
     axis 180 -30 -90   XYZ
    dof rx ry rz
    limits (-60.0 90.0)
           (-90.0 90.0)
           (-90.0 90.0)
  end
  begin
     id 19
     name lradius
     direction 1 -4.48999e-011 5.75106e-027   
     length 2.44373   
     axis 180 -30 -90   XYZ
    dof rx
    limits (-10.0 170.0)
  end
  begin
     id 20
     name lwrist
     direction 1 -4.48987e-011 1.53461e-026   
     length 1.22186   
     axis -1.09697e-014 90 90   XYZ
    dof ry
    limits (-180.0 0.0)
 end
  begin
     id 21 
     name lhand
     direction 1 -4.48881e-011 3.06923e-026   
     length 0.727502   
     axis -1.95843e-014 90 90   XYZ
    dof rx rz
    limits (-90.0 90.0)
           (-45.0 45.0)
  end
  begin
     id 22 
     name lfingers
     direction 1 -4.48907e-011 6.13845e-026   
     length 0.586531   
     axis -3.91686e-014 90 90   XYZ
    dof rx
    limits (0.0 90.0)
  end
  begin
     id 23
     name lthumb
     direction 0.707107 -6.3487e-011 0.707107   
     length 0.842145   
     axis -90 45 2.85299e-015   XYZ
    dof rx rz
    limits (-45.0 45.0)
           (-45.0 45.0)
  end
  begin
     id 24 
     name rclavicle
     direction -0.980998 0.169556 0.0943023   
     length 3.29272  
     axis 0 0 0   XYZ 
    dof ry rz
    limits (-10.0 20.0)
           (-20.0 0.0)
  end
  begin
     id 25 
     name rhumerus
     direction -1 -1.83355e-005 2.45537e-005  
     length 5.58976   
     axis 180 30 90   XYZ
    dof rx ry rz
    limits (-90.0 60.0)
           (-90.0 90.0)
           (-90.0 90.0)
  end
  begin
     id 26 
     name rradius
     direction -1 -4.48967e-011 5.97228e-027   
     length 2.4806   
     axis 180 30 90   XYZ
    dof rx
    limits (-10.0 170.0)
  end
  begin
     id 27 
     name rwrist
     direction -1 -4.48963e-011 1.53461e-026   
     length 1.2403   
     axis -1.09697e-014 -90 -90   XYZ
    dof ry
    limits (-180.0 0.0)
  end
  begin
     id 28
     name rhand
     direction -1 -4.48881e-011 3.06923e-026   
     length 0.816009   
     axis -1.95843e-014 -90 -90   XYZ
    dof rx rz
    limits (-90.0 90.0)
           (-45.0 45.0)
  end
  begin
     id 29
     name rfingers
     direction -1 -4.49018e-011 6.13845e-026   
     length 0.657887   
     axis -3.91686e-014 -90 -90   XYZ
    dof rx
    limits (0.0 90.0)
  end
  begin
     id 30
     name rthumb
     direction -0.707107 -6.34872e-011 0.707107   
     length 0.944599   
     axis -90 -45 -2.85299e-015   XYZ
    dof rx rz
    limits (-45.0 45.0)
           (-45.0 45.0)
  end
:hierarchy
  begin
    root lhipjoint rhipjoint lowerback
    lhipjoint lfemur
    lfemur ltibia
    ltibia lfoot
    lfoot ltoes
    rhipjoint rfemur
    rfemur rtibia
    rtibia rfoot
    rfoot rtoes
    lowerback upperback
    upperback thorax
    thorax lowerneck lclavicle rclavicle
    lowerneck upperneck
    upperneck head
    lclavicle lhumerus
    lhumerus lradius
    lradius lwrist
    lwrist lhand lthumb
    lhand lfingers
    rclavicle rhumerus
    rhumerus rradius
    rradius rwrist
    rwrist rhand rthumb
    rhand rfingers
  end

#!OML:ASF F:\VICON\USERDATA\INSTALL\rory3\rory3.ASF
:FULLY-SPECIFIED
:DEGREES
50
root 1.20375 16.0526 31.0062 -158.003 -4.79415 -182.721
lowerback -5.6949 -4.42442 -5.40484
upperback -9.54518 -6.94383 1.45772
thorax -6.07096 -3.5518 4.51604
lowerneck -20.2167 1.55342 1.5588
upperneck 31.9431 4.14424 -1.78831
head 14.4532 2.33717 -0.0847748
rclavicle 4.97061e-014 1.60519e-014
rhumerus -37.8473 -50.2028 -14.9685
rradius 10.365
rwrist 54.2187
rhand 3.81801 5.34223
rfingers 7.12502
rthumb 29.2419 -22.3797
lclavicle 4.97061e-014 1.60519e-014
lhumerus 11.9403 -9.30667 61.8325
lradius 15.7909
lwrist -55.7436
lhand 12.6925 24.9216
lfingers 7.12502
lthumb 37.6754 50.8084
rfemur -68.4516 -2.55238 23.2182
rtibia 58.8661
rfoot -5.57524 -14.9607
rtoes 15.7549
lfemur -20.8495 1.3887 -28.5116
ltibia 37.1437
lfoot -45.2157 20.1554
ltoes -10.45
51
root 1.2205 16.0275 30.8681 -158.038 -5.34644 -182.717
lowerback -6.16621 -4.50612 -5.26608
upperback -9.8296 -7.11216 1.48359
thorax -6.11114 -3.67077 4.43714
lowerneck -19.6829 1.46035 1.3855
upperneck 32.1058 4.07119 -1.5255
head 14.3941 2.35816 0.0389627
rclavicle 3.33962e-014 1.80149e-014
rhumerus -45.7592 -57.9687 -3.24486
rradius 10.0256
rwrist 64.193
rhand 3.42844 5.28046
rfingers 7.12502
rthumb 28.8699 -22.5056
lclavicle 3.33962e-014 1.80149e-014
lhumerus 12.8474 -9.7264 60.5318
lradius 15.9084
lwrist -55.1293
lhand 12.4208 24.5166
lfingers 7.12502
lthumb 37.4186 50.4716
rfemur -67.7925 -2.312 22.9565
rtibia 59.1498
rfoot -7.32336 -15.2948
rtoes 16.2571
lfemur -20.2029 0.949211 -28.1746
ltibia 37.0711
lfoot -45.5216 20.0463
ltoes -10.7946
52
root 1.2387 16.018 30.7237 -158.08 -5.89617 -182.479
lowerback -6.60184 -4.52685 -4.88707
upperback -10.1574 -7.21387 1.58317
thorax -6.24183 -3.76955 4.31379
lowerneck -19.1607 1.37472 1.18383
upperneck 32.3762 4.06789 -1.31919
head 14.3885 2.40489 0.160758
rclavicle -2.56614e-014 7.01492e-015
rhumerus -55.1828 -63.3235 9.49401
rradius 9.95057
rwrist 72.1725
rhand 3.20503 5.11222
rfingers 7.12502
rthumb 28.6565 -22.7101
lclavicle -2.56614e-014 7.01492e-015
lhumerus 13.7929 -9.31525 59.6903
lradius 15.9418
lwrist -54.972
lhand 13.0782 25.0496
lfingers 7.12502
lthumb 38.0397 50.838
rfemur -67.0948 -1.91545 22.9685
rtibia 59.29
rfoot -8.46098 -15.8459
rtoes 15.3206
lfemur -19.5653 0.702846 -27.5873
ltibia 37.0124
lfoot -45.6675 19.8167
ltoes -11.1125
53
root 1.25319 16.0041 30.5855 -158.032 -6.27592 -182.403
lowerback -7.08857 -4.50028 -4.62852
upperback -10.4274 -7.24604 1.58871
thorax -6.28955 -3.83185 4.15029
lowerneck -18.716 1.32751 0.941597
upperneck 32.3587 4.04663 -1.07934
head 14.2689 2.42335 0.292134
rclavicle 5.92006e-015 1.81888e-014
rhumerus -69.4183 -67.6054 26.8545
rradius 10.0596
rwrist 80.0986
rhand 3.04192 4.9562
rfingers 7.12502
rthumb 28.5006 -22.8923
lclavicle 5.92006e-015 1.81888e-014
lhumerus 14.9197 -9.37197 58.6688
lradius 16.0593
lwrist -54.7958
lhand 13.1842 25.4238
lfingers 7.12502
lthumb 38.1398 51.1848
rfemur -66.5424 -1.56657 22.8626
rtibia 59.3757
rfoot -9.71117 -16.4085
rtoes 14.4795
lfemur -19.0461 0.468633 -27.2668
ltibia 36.946
lfoot -45.5845 20.0225
ltoes -12.0084
54
root 1.26265 15.9979 30.4553 -158.06 -6.92807 -182.108
lowerback -7.642 -4.5388 -4.04699
upperback -10.5196 -7.32623 1.63701
thorax -6.12615 -3.93228 3.82813
lowerneck -18.6656 1.30454 0.832422
upperneck 32.4349 4.03053 -0.947335
head 14.2853 2.43121 0.364012
rclavicle 2.00648e-014 -9.86469e-015
rhumerus -79.5409 -69.5618 39.2266
rradius 10.2614
rwrist 84.4435
rhand 2.96631 4.53041
rfingers 7.12502
rthumb 28.4284 -23.3302
lclavicle 2.00648e-014 -9.86469e-015
lhumerus 16.27 -9.5828 57.5108
lradius 16.2974
lwrist -54.2434
lhand 12.8085 25.7868
lfingers 7.12502
lthumb 37.785 51.6442
rfemur -65.7343 -1.43881 23.1369
rtibia 59.303
rfoot -11.1975 -16.8485
rtoes 15.4694
lfemur -18.5571 -0.0490663 -26.6088
ltibia 36.9614
lfoot -45.1854 20.4373
ltoes -13.4095
55
root 1.26301 16.0044 30.323 -158.181 -7.66125 -181.778
lowerback -8.15609 -4.54782 -3.29795
upperback -10.5489 -7.36476 1.6475
thorax -5.94433 -4.01787 3.3759
lowerneck -18.8991 1.21743 0.767293
upperneck 32.7575 3.93615 -0.832493
head 14.4768 2.40979 0.418429
rclavicle 6.01696e-014 2.18663e-014
rhumerus -91.0376 -70.7265 52.7802
rradius 10.5385
rwrist 88.8272
rhand 2.64973 3.97178
rfingers 7.12502
rthumb 28.1258 -23.939
lclavicle 6.01696e-014 2.18663e-014
lhumerus 17.6948 -9.74927 56.4783
lradius 16.5182
lwrist -53.7586
lhand 12.201 26.5651
lfingers 7.12502
lthumb 37.2108 52.5747
rfemur -64.7838 -1.4664 23.5378
rtibia 59.1321
rfoot -12.1437 -17.3043
rtoes 16.511
lfemur -17.9517 -0.665783 -25.9074
ltibia 36.9729
lfoot -44.6392 20.8104
ltoes -14.4727
